<?xml version="1.0" encoding="UTF-8" standalone="no"?>
<!DOCTYPE svg PUBLIC "-//W3C//DTD SVG 1.1//EN" "http://www.w3.org/Graphics/SVG/1.1/DTD/svg11.dtd">
<svg width="100%" height="100%" viewBox="0 0 3200 1000" version="1.1" xmlns="http://www.w3.org/2000/svg" xmlns:xlink="http://www.w3.org/1999/xlink" xml:space="preserve" xmlns:serif="http://www.serif.com/" style="fill-rule:evenodd;clip-rule:evenodd;stroke-linejoin:round;stroke-miterlimit:2;">
    <g transform="matrix(4.16667,0,0,4.16667,0,0)">
        <path d="M3.751,2.7C3.006,2.7 2.4,3.306 2.4,4.051L2.4,130.354C2.4,160.079 12.21,187.177 30.023,206.659C48.531,226.9 73.835,237.599 103.2,237.599C132.597,237.599 157.901,226.939 176.378,206.77C194.19,187.327 204,160.189 204,130.354L204,4.051C204,3.306 203.394,2.7 202.649,2.7L3.751,2.7ZM103.2,240C73.143,240 47.227,229.031 28.252,208.278C10.033,188.354 0,160.679 0,130.354L0,4.051C0,1.983 1.683,0.299 3.751,0.299L202.649,0.299C204.718,0.299 206.4,1.983 206.4,4.051L206.4,130.354C206.4,160.791 196.367,188.505 178.147,208.391C159.204,229.07 133.288,240 103.2,240Z" style="fill:rgb(0,112,186);fill-rule:nonzero;"/>
        <path d="M50.486,43.186C50.894,42.567 51.585,42.194 52.33,42.194C52.345,42.194 52.442,42.197 52.457,42.198C53.252,42.247 53.96,42.714 54.31,43.417C54.345,43.484 54.982,44.656 56.499,45.469L56.499,41.79C56.499,40.855 55.734,40.089 54.798,40.089L49.002,40.089C48.066,40.089 47.301,40.855 47.301,41.79L47.301,45.682C49.269,44.947 50.471,43.208 50.486,43.186Z" style="fill:rgb(0,112,186);fill-rule:nonzero;"/>
        <path d="M54.306,63.792C53.957,64.493 53.246,64.961 52.455,65.006C52.439,65.006 52.347,65.009 52.331,65.009C51.578,65.009 50.885,64.632 50.476,64.001C50.466,63.986 49.267,62.252 47.301,61.518L47.301,202.898C47.301,203.834 48.066,204.599 49.002,204.599L54.798,204.599C55.734,204.599 56.499,203.834 56.499,202.898L56.499,61.732C54.984,62.544 54.346,63.716 54.306,63.792Z" style="fill:rgb(0,112,186);fill-rule:nonzero;"/>
        <path d="M16.791,52.341C16.791,42.268 19.333,32.866 20.749,28.407C18.785,25.161 17.422,22.413 16.78,21.054C16.6,20.672 16.064,20.658 15.869,21.032C14.231,24.163 9.07,35.461 9.049,53.526L9.049,53.675C9.07,71.74 14.231,83.038 15.869,86.17C16.064,86.543 16.6,86.528 16.78,86.147C17.398,84.838 18.689,82.237 20.538,79.148C19.106,73.143 16.791,61.949 16.791,52.341Z" style="fill:rgb(0,112,186);fill-rule:nonzero;"/>
        <path d="M52.331,44.403C52.331,44.403 49.857,48.219 45.567,48.219C35.829,48.219 27.656,38.98 22.454,31.101C21.067,35.915 19.191,43.971 19.191,52.341C19.191,60.491 20.965,70.052 22.347,76.263C27.543,68.349 35.762,58.982 45.567,58.982C49.857,58.982 52.331,62.798 52.331,62.798C52.331,62.798 54.348,58.75 59.747,58.75L59.747,48.451C54.348,48.451 52.331,44.403 52.331,44.403Z" style="fill:rgb(0,112,186);fill-rule:nonzero;"/>
        <path d="M155.101,64.009C154.697,64.632 154.003,65.009 153.251,65.009C153.236,65.009 153.143,65.006 153.127,65.006C152.336,64.961 151.625,64.493 151.273,63.784C151.236,63.714 150.598,62.544 149.083,61.732L149.083,202.898C149.083,203.834 149.849,204.599 150.784,204.599L156.581,204.599C157.517,204.599 158.282,203.834 158.282,202.898L158.282,61.518C156.315,62.251 155.116,63.987 155.101,64.009Z" style="fill:rgb(0,112,186);fill-rule:nonzero;"/>
        <path d="M151.279,43.404C151.623,42.714 152.331,42.247 153.119,42.199C153.135,42.197 153.235,42.194 153.252,42.194C153.998,42.194 154.689,42.567 155.1,43.191C155.113,43.211 156.313,44.949 158.282,45.683L158.282,41.79C158.282,40.855 157.517,40.089 156.581,40.089L150.784,40.089C149.849,40.089 149.083,40.855 149.083,41.79L149.083,45.468C150.601,44.655 151.239,43.48 151.279,43.404Z" style="fill:rgb(0,112,186);fill-rule:nonzero;"/>
        <path d="M186.391,52.341C186.391,43.962 184.516,35.91 183.129,31.099C177.927,38.979 169.755,48.219 160.015,48.219C155.726,48.219 153.251,44.403 153.251,44.403C153.251,44.403 151.235,48.451 145.835,48.451L145.835,58.75C151.235,58.75 153.251,62.798 153.251,62.798C153.251,62.798 155.726,58.982 160.015,58.982C169.821,58.982 178.039,68.349 183.236,76.263C184.617,70.051 186.391,60.491 186.391,52.341Z" style="fill:rgb(0,112,186);fill-rule:nonzero;"/>
        <path d="M189.714,21.032C189.519,20.658 188.982,20.672 188.803,21.054C188.161,22.413 186.798,25.161 184.833,28.408C186.25,32.867 188.792,42.269 188.792,52.341C188.792,61.949 186.477,73.144 185.045,79.149C186.894,82.237 188.185,84.838 188.803,86.147C188.982,86.528 189.519,86.543 189.714,86.17C191.352,83.038 196.512,71.74 196.534,53.675L196.534,53.526C196.512,35.461 191.352,24.163 189.714,21.032Z" style="fill:rgb(0,112,186);fill-rule:nonzero;"/>
        <path d="M112.232,92.025C110.83,81.847 115.868,80.58 118.652,80.43L118.711,80.429C118.824,78.773 118.583,76.81 117.978,75.375C117.132,73.367 115.688,71.969 113.913,71.438C110.351,70.373 106.617,72.973 105.203,77.422C105.899,76.797 106.604,76.347 106.864,76.218C107.391,75.954 108.051,75.36 108.315,75.69C108.579,76.02 108.513,75.954 107.589,77.274C106.666,78.593 105.874,79.45 105.082,80.968C104.658,81.781 104.443,82.801 104.334,83.605C104.365,97.48 104.401,112.407 104.439,127.207C106.762,123.524 110.789,121.483 114.416,122.568C116.732,123.261 118.602,125.05 119.679,127.605C120.392,129.299 120.688,131.536 120.579,133.467L120.638,133.467C123.353,133.564 128.903,134.609 127.462,145.072C127.048,148.612 128.912,150.105 128.912,150.105C128.912,150.105 124.82,151.653 123.059,147.34C122.748,148.058 121.815,149.939 119.899,150.714L119.795,150.714C117.878,149.939 116.946,148.058 116.635,147.34C114.874,151.653 110.781,150.105 110.781,150.105C110.781,150.105 112.646,148.612 112.232,145.072C110.83,134.895 115.868,133.628 118.652,133.477L118.711,133.477C118.824,131.82 118.583,129.859 117.978,128.423C117.132,126.415 115.688,125.016 113.913,124.485C110.563,123.484 107.062,126 105.479,130.027C106.079,129.527 106.639,129.174 106.864,129.062C107.391,128.798 108.051,128.204 108.315,128.534C108.579,128.864 108.513,128.798 107.589,130.118C106.666,131.437 105.874,132.295 105.082,133.812C104.784,134.383 104.589,135.058 104.461,135.687C104.503,151.482 104.545,166.864 104.583,180.369C106.927,176.834 110.866,174.906 114.416,175.968C116.732,176.661 118.602,178.45 119.679,181.006C120.392,182.698 120.688,184.936 120.579,186.868L120.638,186.867C123.353,186.965 128.903,188.009 127.462,198.471C127.048,202.011 128.912,203.505 128.912,203.505C128.912,203.505 124.82,205.053 123.059,200.74C122.748,201.459 121.815,203.339 119.899,204.113L119.795,204.113C117.878,203.339 116.946,201.459 116.635,200.74C114.874,205.053 110.781,203.505 110.781,203.505C110.781,203.505 112.646,202.011 112.232,198.471C110.83,188.295 115.868,187.028 118.652,186.878L118.711,186.877C118.824,185.22 118.583,183.257 117.978,181.822C117.132,179.815 115.688,178.417 113.913,177.885C110.454,176.851 106.831,179.564 105.329,183.822C105.983,183.256 106.62,182.85 106.864,182.728C107.391,182.465 108.051,181.871 108.315,182.201C108.579,182.531 108.513,182.465 107.589,183.784C106.666,185.104 105.874,185.962 105.082,187.479C104.88,187.866 104.726,188.3 104.607,188.736C104.673,211.481 104.721,227.131 104.721,227.131L101.101,227.131L101.337,166.087L101.325,166.147C101.325,165.099 101.273,164.142 101.197,163.301C101.096,162.986 100.973,162.676 100.825,162.393C100.034,160.876 99.241,160.018 98.318,158.699C97.394,157.38 97.328,157.445 97.592,157.115C97.856,156.786 98.516,157.38 99.043,157.643C99.242,157.742 99.703,158.029 100.221,158.439C98.674,154.304 95.118,151.697 91.717,152.714C89.942,153.245 88.498,154.643 87.652,156.651C87.047,158.086 86.806,160.049 86.919,161.706L86.978,161.706C89.762,161.856 94.8,163.124 93.398,173.3C92.984,176.84 94.849,178.334 94.849,178.334C94.849,178.334 90.756,179.882 88.995,175.568C88.684,176.287 87.752,178.168 85.835,178.941L85.731,178.941C83.814,178.168 82.882,176.287 82.571,175.568C80.81,179.882 76.718,178.334 76.718,178.334C76.718,178.334 78.583,176.84 78.168,173.3C76.727,162.838 82.277,161.793 84.992,161.696L85.051,161.696C84.941,159.764 85.238,157.526 85.951,155.834C87.028,153.278 88.897,151.49 91.215,150.797C94.94,149.681 99.089,151.866 101.377,155.742L101.542,112.999C101.529,112.911 101.515,112.821 101.499,112.73L101.495,112.747L101.495,112.709C101.37,112.01 101.165,111.227 100.825,110.577C100.034,109.059 99.241,108.202 98.318,106.882C97.394,105.563 97.328,105.629 97.592,105.299C97.856,104.969 98.516,105.563 99.043,105.827C99.341,105.976 100.229,106.546 101.015,107.321C100.926,106.843 100.844,106.49 100.792,106.29C99.55,101.444 95.621,98.198 91.888,99.314C90.112,99.845 88.668,101.243 87.822,103.251C87.217,104.686 86.976,106.649 87.089,108.305L87.148,108.305C89.932,108.456 94.97,109.723 93.568,119.9C93.154,123.44 95.019,124.933 95.019,124.933C95.019,124.933 90.926,126.482 89.165,122.168C88.855,122.886 87.922,124.767 86.005,125.542L85.901,125.542C83.985,124.767 83.052,122.886 82.742,122.168C80.98,126.482 76.888,124.933 76.888,124.933C76.888,124.933 78.752,123.44 78.338,119.9C76.897,109.438 82.447,108.392 85.163,108.296L85.221,108.296C85.112,106.364 85.408,104.127 86.122,102.434C87.198,99.879 89.067,98.09 91.385,97.397C95.13,96.276 99.303,98.488 101.583,102.401L101.75,59.197C101.71,59.34 101.683,59.429 101.683,59.429C101.683,59.232 101.617,56.988 100.825,55.471C100.034,53.954 99.241,53.096 98.318,51.777C97.394,50.457 97.328,50.523 97.592,50.193C97.856,49.863 98.516,50.457 99.043,50.721C99.358,50.879 100.331,51.507 101.148,52.352C101.143,52.332 101.137,52.308 101.132,52.29C99.891,47.444 95.961,44.198 92.228,45.314C90.453,45.845 89.008,47.243 88.163,49.251C87.558,50.687 87.316,52.649 87.429,54.306L87.488,54.306C90.272,54.457 95.311,55.724 93.909,65.901C93.494,69.44 95.359,70.934 95.359,70.934C95.359,70.934 91.267,72.482 89.505,68.168C89.194,68.887 88.262,70.768 86.345,71.542L86.242,71.542C84.325,70.768 83.393,68.887 83.082,68.168C81.32,72.482 77.228,70.934 77.228,70.934C77.228,70.934 79.093,69.44 78.678,65.901C77.237,55.438 82.788,54.393 85.502,54.296L85.562,54.297C85.452,52.365 85.749,50.127 86.461,48.434C87.539,45.879 89.408,44.09 91.725,43.397C95.397,42.298 99.479,44.405 101.787,48.176C101.768,36.985 101.518,28.118 102.855,22.964C104.24,17.626 109.457,14.287 114.008,15.563C116.245,16.19 118.049,17.807 119.088,20.117C119.776,21.647 120.063,23.363 119.957,25.109L120.014,25.109C122.634,25.196 127.991,26.141 126.601,35.6C126.2,38.8 128,40.15 128,40.15C128,40.15 124.05,41.549 122.351,37.65C122.05,38.299 121.15,40 119.3,40.7L119.2,40.7C117.351,40 116.45,38.299 116.15,37.65C114.45,41.549 110.5,40.15 110.5,40.15C110.5,40.15 112.3,38.8 111.9,35.6C110.547,26.4 115.41,25.254 118.098,25.118L118.154,25.117C118.263,23.62 118.03,22.153 117.446,20.856C116.63,19.041 115.236,17.777 113.523,17.296C109.919,16.287 106.126,19.068 104.928,23.449C104.76,24.066 104.25,26.25 104.25,29.287C104.25,39.475 104.275,55.476 104.314,74.068C106.614,70.345 110.722,68.415 114.416,69.521C116.732,70.214 118.602,72.003 119.679,74.558C120.392,76.251 120.688,78.488 120.579,80.42L120.638,80.42C123.353,80.517 128.903,81.562 127.462,92.025C127.048,95.564 128.912,97.057 128.912,97.057C128.912,97.057 124.82,98.606 123.059,94.292C122.748,95.011 121.815,96.891 119.899,97.666L119.795,97.666C117.878,96.891 116.946,95.011 116.635,94.292C114.874,98.606 110.781,97.057 110.781,97.057C110.781,97.057 112.646,95.564 112.232,92.025ZM136.8,1.2L69.3,1.2L69.3,233.735C69.3,233.735 82.2,238.667 103.05,238.667C123.9,238.667 136.8,233.735 136.8,233.735L136.8,1.2Z" style="fill:rgb(0,112,186);fill-rule:nonzero;"/>
        <path d="M313.478,189.805L284.408,155.425L311.858,126.086L292.598,126.086L269.828,152.006L269.558,152.006L269.558,126.086L254.528,126.086L254.528,189.805L269.558,189.805L269.558,160.466L269.738,160.466L293.408,189.805L313.478,189.805ZM374.318,143.861C372.578,139.752 370.163,136.256 367.073,133.376C363.983,130.497 360.308,128.277 356.048,126.716C351.788,125.156 347.168,124.376 342.188,124.376C337.208,124.376 332.603,125.156 328.373,126.716C324.143,128.277 320.483,130.497 317.393,133.376C314.303,136.256 311.888,139.752 310.148,143.861C308.408,147.97 307.538,152.577 307.538,157.675C307.538,162.716 308.408,167.321 310.148,171.491C311.888,175.662 314.303,179.23 317.393,182.201C320.483,185.171 324.143,187.466 328.373,189.086C332.603,190.706 337.208,191.515 342.188,191.515C347.168,191.515 351.788,190.706 356.048,189.086C360.308,187.466 363.983,185.171 367.073,182.201C370.163,179.23 372.578,175.662 374.318,171.491C376.058,167.321 376.928,162.716 376.928,157.675C376.928,152.577 376.058,147.97 374.318,143.861ZM359.108,165.64C358.208,168.071 356.948,170.156 355.328,171.895C353.708,173.636 351.788,175.001 349.568,175.991C347.348,176.98 344.888,177.475 342.188,177.475C339.488,177.475 337.028,176.98 334.808,175.991C332.588,175.001 330.683,173.636 329.093,171.895C327.503,170.156 326.258,168.071 325.358,165.64C324.458,163.211 324.008,160.555 324.008,157.675C324.008,154.917 324.443,152.336 325.313,149.935C326.183,147.537 327.428,145.48 329.048,143.77C330.668,142.06 332.588,140.711 334.808,139.72C337.028,138.73 339.488,138.236 342.188,138.236C344.888,138.236 347.363,138.73 349.613,139.72C351.863,140.711 353.783,142.06 355.373,143.77C356.963,145.48 358.208,147.537 359.108,149.935C360.008,152.336 360.458,154.917 360.458,157.675C360.458,160.555 360.008,163.211 359.108,165.64ZM457.208,189.805L457.208,126.086L434.95,126.086L421.073,166.946L420.713,166.946L406.205,126.086L384.308,126.086L384.308,189.805L398.798,189.805L398.438,144.716L398.708,144.716L414.818,189.805L425.618,189.805L442.178,144.716L442.448,144.716L442.088,189.805L457.208,189.805ZM539.467,189.805L539.467,126.086L517.209,126.086L503.333,166.946L502.972,166.946L488.464,126.086L466.567,126.086L466.567,189.805L481.057,189.805L480.697,144.716L480.967,144.716L497.078,189.805L507.877,189.805L524.437,144.716L524.708,144.716L524.347,189.805L539.467,189.805ZM603.457,165.776L603.457,126.086L588.066,126.086L588.066,164.515C588.066,166.257 587.855,167.906 587.436,169.466C587.015,171.027 586.325,172.422 585.366,173.651C584.405,174.881 583.162,175.855 581.631,176.576C580.101,177.296 578.256,177.656 576.096,177.656C573.936,177.656 572.091,177.296 570.561,176.576C569.031,175.855 567.8,174.881 566.872,173.651C565.94,172.422 565.251,171.027 564.801,169.466C564.351,167.906 564.126,166.257 564.126,164.515L564.126,126.086L548.827,126.086L548.827,165.776C548.827,169.616 549.457,173.111 550.716,176.26C551.976,179.411 553.776,182.111 556.116,184.361C558.457,186.611 561.305,188.366 564.667,189.626C568.025,190.885 571.805,191.515 576.006,191.515C580.146,191.515 583.911,190.885 587.301,189.626C590.69,188.366 593.585,186.611 595.986,184.361C598.385,182.111 600.23,179.411 601.521,176.26C602.81,173.111 603.457,169.616 603.457,165.776ZM670.775,189.805L670.775,126.086L655.835,126.086L656.195,167.666L655.925,167.666L630.365,126.086L612.815,126.086L612.815,189.805L627.755,189.805L627.395,148.135L627.666,148.135L653.315,189.805L670.775,189.805Z" style="fill:rgb(0,112,186);fill-rule:nonzero;"/>
        <path d="M327.428,103.806L327.428,40.086L305.17,40.086L291.293,80.946L290.933,80.946L276.425,40.086L254.528,40.086L254.528,103.806L269.018,103.806L268.658,58.716L268.928,58.716L285.038,103.806L295.838,103.806L312.398,58.716L312.668,58.716L312.308,103.806L327.428,103.806ZM381.247,103.806L381.247,90.666L351.637,90.666L351.637,77.436L378.097,77.436L378.097,65.106L351.637,65.106L351.637,53.046L379.627,53.046L379.627,40.086L336.787,40.086L336.787,103.806L381.247,103.806ZM430.656,103.806L430.656,90.396L405.996,90.396L405.996,40.086L390.516,40.086L390.516,103.806L430.656,103.806ZM477.095,103.806L477.095,90.396L452.435,90.396L452.435,40.086L436.955,40.086L436.955,103.806L477.095,103.806ZM527.854,103.806L527.854,90.666L498.245,90.666L498.245,77.436L524.705,77.436L524.705,65.106L498.245,65.106L498.245,53.046L526.234,53.046L526.234,40.086L483.394,40.086L483.394,103.806L527.854,103.806ZM589.233,103.806L572.583,76.536C576.723,75.276 579.963,73.176 582.303,70.236C584.643,67.297 585.813,63.666 585.813,59.346C585.813,55.687 585.124,52.627 583.744,50.166C582.362,47.706 580.517,45.726 578.208,44.226C575.898,42.727 573.289,41.661 570.378,41.031C567.467,40.401 564.483,40.086 561.423,40.086L537.124,40.086L537.124,103.806L552.153,103.806L552.153,78.516L557.399,78.516L571.233,103.806L589.233,103.806ZM569.563,63.576C568.87,64.597 567.981,65.376 566.895,65.916C565.809,66.456 564.604,66.831 563.278,67.041C561.952,67.252 560.654,67.356 559.388,67.356L552.063,67.356L552.063,52.506L560.293,52.506C561.437,52.506 562.628,52.596 563.864,52.776C565.101,52.956 566.216,53.302 567.211,53.811C568.207,54.321 569.02,55.041 569.653,55.971C570.286,56.902 570.603,58.117 570.603,59.616C570.603,61.236 570.256,62.556 569.563,63.576ZM647.374,79.776L647.374,40.086L631.983,40.086L631.983,78.516C631.983,80.257 631.772,81.906 631.353,83.466C630.932,85.027 630.243,86.422 629.284,87.651C628.322,88.881 627.079,89.856 625.548,90.576C624.018,91.296 622.173,91.656 620.013,91.656C617.853,91.656 616.008,91.296 614.478,90.576C612.948,89.856 611.717,88.881 610.789,87.651C609.857,86.422 609.168,85.027 608.718,83.466C608.268,81.906 608.043,80.257 608.043,78.516L608.043,40.086L592.744,40.086L592.744,79.776C592.744,83.616 593.374,87.111 594.633,90.261C595.893,93.411 597.693,96.111 600.034,98.361C602.374,100.611 605.222,102.365 608.583,103.626C611.942,104.885 615.722,105.516 619.923,105.516C624.063,105.516 627.828,104.885 631.218,103.626C634.607,102.365 637.502,100.611 639.903,98.361C642.302,96.111 644.147,93.411 645.438,90.261C646.727,87.111 647.374,83.616 647.374,79.776ZM712.802,56.646C710.702,52.566 707.942,49.311 704.522,46.881C701.102,44.451 697.202,42.711 692.822,41.661C688.441,40.612 684.002,40.086 679.502,40.086L656.462,40.086L656.462,103.806L680.222,103.806C684.601,103.806 688.921,103.191 693.182,101.961C697.441,100.732 701.267,98.811 704.657,96.201C708.046,93.591 710.777,90.261 712.847,86.211C714.917,82.161 715.953,77.346 715.953,71.766C715.953,65.767 714.901,60.727 712.802,56.646ZM698.177,80.676C697.007,83.076 695.446,84.996 693.498,86.436C691.546,87.876 689.296,88.911 686.748,89.541C684.196,90.171 681.542,90.486 678.782,90.486L671.493,90.486L671.493,53.226L679.142,53.226C681.781,53.226 684.346,53.527 686.837,54.126C689.327,54.726 691.546,55.732 693.498,57.141C695.446,58.551 697.007,60.441 698.177,62.811C699.347,65.182 699.932,68.166 699.932,71.766C699.932,75.307 699.347,78.277 698.177,80.676ZM767.251,46.296C764.43,43.717 761.145,41.766 757.396,40.446C753.645,39.127 749.971,38.466 746.372,38.466C743.371,38.466 740.4,38.841 737.461,39.591C734.52,40.342 731.881,41.526 729.542,43.146C727.202,44.766 725.311,46.836 723.872,49.356C722.431,51.876 721.711,54.906 721.711,58.446C721.711,61.326 722.175,63.771 723.106,65.781C724.036,67.792 725.266,69.502 726.796,70.911C728.327,72.321 730.065,73.476 732.016,74.376C733.965,75.276 735.96,76.056 738.001,76.716C740.1,77.377 741.975,77.991 743.626,78.561C745.275,79.132 746.655,79.762 747.766,80.451C748.875,81.141 749.73,81.906 750.332,82.746C750.93,83.587 751.231,84.606 751.231,85.806C751.231,87.066 750.99,88.146 750.511,89.046C750.03,89.946 749.386,90.666 748.577,91.206C747.766,91.746 746.821,92.137 745.741,92.376C744.662,92.616 743.55,92.736 742.412,92.736C739.891,92.736 737.355,92.092 734.806,90.801C732.255,89.511 730.201,87.907 728.641,85.986L718.561,96.246C721.38,99.186 724.92,101.452 729.181,103.041C733.44,104.63 737.85,105.425 742.412,105.425C745.53,105.425 748.56,105.006 751.501,104.166C754.44,103.326 757.05,102.037 759.332,100.296C761.61,98.556 763.426,96.351 764.776,93.681C766.126,91.012 766.801,87.846 766.801,84.186C766.801,81.006 766.171,78.351 764.912,76.221C763.651,74.092 762.06,72.306 760.141,70.866C758.22,69.426 756.091,68.271 753.751,67.401C751.412,66.532 749.162,65.736 747.001,65.016C745.5,64.536 744.15,64.071 742.952,63.621C741.75,63.171 740.715,62.676 739.846,62.136C738.975,61.596 738.316,60.966 737.866,60.246C737.417,59.526 737.191,58.626 737.191,57.546C737.191,56.286 737.475,55.251 738.046,54.441C738.615,53.631 739.32,52.971 740.162,52.461C741,51.952 741.945,51.606 742.997,51.426C744.045,51.246 745.081,51.156 746.101,51.156C748.082,51.156 750.135,51.651 752.266,52.641C754.395,53.631 756.121,54.967 757.441,56.646L767.251,46.296Z" style="fill:rgb(0,112,186);fill-rule:nonzero;"/>
    </g>
</svg>
