<?xml version="1.0" encoding="UTF-8" standalone="no"?>
<!DOCTYPE svg PUBLIC "-//W3C//DTD SVG 1.1//EN" "http://www.w3.org/Graphics/SVG/1.1/DTD/svg11.dtd">
<svg width="100%" height="100%" viewBox="0 0 3200 1000" version="1.1" xmlns="http://www.w3.org/2000/svg" xmlns:xlink="http://www.w3.org/1999/xlink" xml:space="preserve" xmlns:serif="http://www.serif.com/" style="fill-rule:evenodd;clip-rule:evenodd;stroke-miterlimit:2;">
    <g transform="matrix(4.16667,0,0,4.16667,0,0)">
        <path d="M52.331,62.799C52.331,62.799 49.857,58.982 45.567,58.982C35.761,58.982 27.543,68.349 22.346,76.264C20.965,70.053 19.191,60.492 19.191,52.342C19.191,43.972 21.067,35.916 22.454,31.101C27.656,38.98 35.828,48.22 45.567,48.22C49.857,48.22 52.331,44.404 52.331,44.404C52.331,44.404 54.347,48.452 59.747,48.452L59.747,58.75C54.347,58.75 52.331,62.799 52.331,62.799ZM56.499,202.899C56.499,203.834 55.734,204.6 54.798,204.6L49.001,204.6C48.066,204.6 47.3,203.834 47.3,202.899L47.3,61.519C49.266,62.253 50.466,63.987 50.475,64.001C50.884,64.633 51.578,65.01 52.331,65.01C52.346,65.01 52.439,65.007 52.455,65.006C53.246,64.962 53.956,64.494 54.306,63.792C54.345,63.717 54.984,62.545 56.499,61.732L56.499,202.899ZM16.78,86.148C16.6,86.529 16.064,86.544 15.868,86.17C14.231,83.039 9.07,71.741 9.048,53.676L9.048,53.526C9.07,35.462 14.231,24.163 15.868,21.032C16.064,20.659 16.6,20.673 16.78,21.055C17.422,22.414 18.784,25.162 20.749,28.408C19.332,32.867 16.791,42.269 16.791,52.342C16.791,61.949 19.106,73.144 20.537,79.149C18.689,82.238 17.398,84.839 16.78,86.148ZM47.3,41.791C47.3,40.855 48.066,40.09 49.001,40.09L54.798,40.09C55.734,40.09 56.499,40.855 56.499,41.791L56.499,45.47C54.982,44.657 54.345,43.485 54.31,43.418C53.959,42.715 53.252,42.248 52.457,42.199C52.442,42.198 52.345,42.195 52.33,42.195C51.584,42.195 50.894,42.567 50.486,43.186C50.47,43.208 49.269,44.948 47.3,45.683L47.3,41.791ZM69.299,233.483L69.299,1.5L3.751,1.5C2.342,1.5 1.199,2.643 1.199,4.052L1.199,130.355C1.199,179.315 27.256,219.492 69.299,233.483Z" style="fill:white;fill-rule:nonzero;"/>
        <path d="M110.781,97.058C110.781,97.058 114.873,98.607 116.635,94.293C116.945,95.012 117.878,96.892 119.795,97.666L119.899,97.666C121.815,96.892 122.748,95.012 123.058,94.293C124.82,98.607 128.912,97.058 128.912,97.058C128.912,97.058 127.047,95.565 127.462,92.025C128.903,81.562 123.353,80.517 120.637,80.42L120.579,80.421C120.688,78.489 120.392,76.251 119.678,74.558C118.602,72.003 116.733,70.214 114.415,69.521C110.721,68.416 106.614,70.346 104.314,74.068C104.275,55.477 104.25,39.475 104.25,29.288C104.25,26.25 104.759,24.067 104.928,23.45C106.126,19.069 109.919,16.288 113.523,17.297C115.236,17.777 116.63,19.041 117.446,20.856C118.03,22.154 118.263,23.62 118.154,25.118L118.097,25.119C115.409,25.255 110.547,26.4 111.9,35.6C112.3,38.801 110.5,40.15 110.5,40.15C110.5,40.15 114.45,41.55 116.15,37.65C116.45,38.3 117.35,40 119.2,40.701L119.3,40.701C121.15,40 122.05,38.3 122.35,37.65C124.05,41.55 128,40.15 128,40.15C128,40.15 126.2,38.801 126.6,35.6C127.991,26.142 122.634,25.197 120.013,25.109L119.957,25.11C120.062,23.364 119.776,21.648 119.088,20.118C118.048,17.808 116.244,16.19 114.007,15.564C109.456,14.288 104.239,17.626 102.855,22.964C101.518,28.119 101.768,36.986 101.787,48.177C99.478,44.406 95.397,42.299 91.725,43.397C89.407,44.091 87.538,45.88 86.462,48.435C85.748,50.128 85.452,52.366 85.561,54.297L85.502,54.297C82.787,54.393 77.237,55.439 78.678,65.901C79.092,69.441 77.228,70.934 77.228,70.934C77.228,70.934 81.32,72.483 83.081,68.169C83.392,68.888 84.324,70.768 86.241,71.543L86.345,71.543C88.262,70.768 89.194,68.888 89.505,68.169C91.266,72.483 95.359,70.934 95.359,70.934C95.359,70.934 93.494,69.441 93.908,65.901C95.31,55.724 90.272,54.457 87.487,54.307L87.429,54.307C87.316,52.65 87.557,50.687 88.162,49.252C89.008,47.244 90.452,45.846 92.227,45.315C95.961,44.199 99.89,47.445 101.132,52.291C101.137,52.309 101.143,52.333 101.148,52.353C100.33,51.508 99.358,50.879 99.043,50.722C98.515,50.458 97.856,49.864 97.592,50.194C97.328,50.524 97.394,50.458 98.318,51.777C99.241,53.097 100.033,53.954 100.825,55.472C101.617,56.989 101.683,59.232 101.683,59.43C101.683,59.43 101.71,59.341 101.75,59.198L101.583,102.402C99.302,98.489 95.13,96.277 91.384,97.397C89.067,98.091 87.198,99.88 86.121,102.434C85.408,104.127 85.111,106.365 85.221,108.296L85.162,108.296C82.447,108.393 76.897,109.438 78.338,119.901C78.752,123.441 76.887,124.934 76.887,124.934C76.887,124.934 80.98,126.483 82.741,122.168C83.052,122.887 83.985,124.768 85.901,125.542L86.005,125.542C87.922,124.768 88.854,122.887 89.165,122.168C90.926,126.483 95.019,124.934 95.019,124.934C95.019,124.934 93.154,123.441 93.568,119.901C94.97,109.724 89.932,108.457 87.148,108.306L87.089,108.306C86.976,106.649 87.217,104.687 87.822,103.251C88.668,101.244 90.112,99.846 91.887,99.315C95.621,98.199 99.55,101.444 100.792,106.29C100.843,106.491 100.925,106.844 101.015,107.322C100.228,106.546 99.341,105.976 99.043,105.828C98.515,105.563 97.856,104.97 97.592,105.3C97.328,105.629 97.394,105.563 98.318,106.883C99.241,108.203 100.033,109.06 100.825,110.578C101.164,111.228 101.37,112.011 101.494,112.709C101.494,112.723 101.495,112.735 101.495,112.748L101.498,112.731C101.514,112.822 101.529,112.912 101.542,113L101.377,155.743C99.089,151.867 94.94,149.682 91.215,150.797C88.897,151.491 87.028,153.279 85.951,155.834C85.238,157.527 84.941,159.765 85.051,161.697L84.992,161.697C82.277,161.793 76.727,162.838 78.168,173.301C78.582,176.84 76.717,178.334 76.717,178.334C76.717,178.334 80.81,179.882 82.571,175.569C82.882,176.288 83.814,178.168 85.731,178.942L85.835,178.942C87.752,178.168 88.684,176.288 88.995,175.569C90.756,179.882 94.848,178.334 94.848,178.334C94.848,178.334 92.984,176.84 93.398,173.301C94.8,163.124 89.762,161.857 86.977,161.706L86.919,161.706C86.805,160.049 87.047,158.086 87.652,156.652C88.498,154.644 89.942,153.246 91.717,152.714C95.118,151.698 98.674,154.305 100.221,158.44C99.702,158.03 99.242,157.743 99.043,157.644C98.515,157.379 97.856,156.786 97.592,157.116C97.328,157.446 97.394,157.379 98.318,158.7C99.241,160.019 100.033,160.876 100.825,162.394C100.973,162.677 101.095,162.987 101.197,163.302C101.273,164.143 101.324,165.1 101.324,166.148L101.337,166.087L101.101,227.131L104.72,227.131C104.72,227.131 104.672,211.482 104.607,188.737C104.726,188.301 104.88,187.867 105.082,187.48C105.874,185.962 106.665,185.104 107.589,183.785C108.512,182.465 108.579,182.532 108.315,182.202C108.051,181.872 107.391,182.465 106.863,182.729C106.62,182.851 105.983,183.256 105.329,183.823C106.831,179.565 110.454,176.852 113.912,177.886C115.688,178.417 117.132,179.816 117.978,181.823C118.583,183.258 118.824,185.221 118.711,186.877L118.652,186.878C115.867,187.029 110.83,188.295 112.232,198.472C112.646,202.012 110.781,203.505 110.781,203.505C110.781,203.505 114.873,205.054 116.635,200.741C116.945,201.459 117.878,203.339 119.795,204.114L119.899,204.114C121.815,203.339 122.748,201.459 123.058,200.741C124.82,205.054 128.912,203.505 128.912,203.505C128.912,203.505 127.047,202.012 127.462,198.472C128.903,188.01 123.353,186.965 120.637,186.868L120.579,186.869C120.688,184.937 120.392,182.699 119.678,181.006C118.602,178.451 116.733,176.662 114.415,175.969C110.865,174.907 106.927,176.834 104.583,180.37C104.545,166.865 104.503,151.483 104.461,135.688C104.588,135.059 104.784,134.384 105.082,133.813C105.874,132.295 106.665,131.438 107.589,130.118C108.512,128.798 108.579,128.865 108.315,128.535C108.051,128.205 107.391,128.798 106.863,129.063C106.638,129.175 106.078,129.528 105.479,130.028C107.061,126 110.563,123.485 113.912,124.486C115.688,125.017 117.132,126.415 117.978,128.423C118.583,129.86 118.824,131.821 118.711,133.478L118.652,133.478C115.867,133.628 110.83,134.896 112.232,145.073C112.646,148.612 110.781,150.106 110.781,150.106C110.781,150.106 114.873,151.654 116.635,147.34C116.945,148.059 117.878,149.94 119.795,150.714L119.899,150.714C121.815,149.94 122.748,148.059 123.058,147.34C124.82,151.654 128.912,150.106 128.912,150.106C128.912,150.106 127.047,148.612 127.462,145.073C128.903,134.61 123.353,133.565 120.637,133.468L120.579,133.468C120.688,131.537 120.392,129.299 119.678,127.606C118.602,125.051 116.733,123.262 114.415,122.569C110.788,121.484 106.761,123.525 104.439,127.207C104.401,112.408 104.364,97.481 104.334,83.605C104.442,82.802 104.657,81.782 105.082,80.969C105.874,79.451 106.665,78.594 107.589,77.274C108.512,75.954 108.579,76.02 108.315,75.691C108.051,75.361 107.391,75.954 106.863,76.219C106.604,76.348 105.899,76.797 105.202,77.423C106.616,72.974 110.351,70.374 113.912,71.438C115.688,71.97 117.132,73.368 117.978,75.375C118.583,76.811 118.824,78.773 118.711,80.43L118.652,80.431C115.867,80.581 110.83,81.848 112.232,92.025C112.646,95.565 110.781,97.058 110.781,97.058Z" style="fill:white;fill-rule:nonzero;"/>
        <path d="M103.05,238.667C97.287,238.667 92.135,238.29 87.692,237.745C92.696,238.436 97.867,238.8 103.2,238.8C109.927,238.8 116.403,238.237 122.602,237.153C117.327,237.997 110.73,238.667 103.05,238.667Z" style="fill:white;fill-rule:nonzero;"/>
        <path d="M196.533,53.676C196.512,71.741 191.351,83.039 189.713,86.17C189.518,86.544 188.982,86.529 188.802,86.148C188.184,84.839 186.893,82.238 185.045,79.149C186.476,73.144 188.791,61.95 188.791,52.342C188.791,42.269 186.25,32.868 184.833,28.409C186.797,25.162 188.16,22.414 188.802,21.055C188.982,20.673 189.518,20.659 189.713,21.032C191.351,24.163 196.512,35.462 196.533,53.526L196.533,53.676ZM160.015,58.982C155.725,58.982 153.251,62.799 153.251,62.799C153.251,62.799 151.234,58.75 145.835,58.75L145.835,48.452C151.234,48.452 153.251,44.404 153.251,44.404C153.251,44.404 155.725,48.22 160.015,48.22C169.755,48.22 177.927,38.979 183.129,31.1C184.516,35.911 186.391,43.963 186.391,52.342C186.391,60.492 184.617,70.052 183.235,76.264C178.039,68.349 169.82,58.982 160.015,58.982ZM158.281,202.899C158.281,203.834 157.516,204.6 156.581,204.6L150.784,204.6C149.848,204.6 149.083,203.834 149.083,202.899L149.083,61.733C150.598,62.545 151.236,63.715 151.273,63.785C151.625,64.494 152.336,64.962 153.127,65.006C153.143,65.007 153.235,65.01 153.251,65.01C154.003,65.01 154.696,64.633 155.101,64.01C155.115,63.988 156.315,62.252 158.281,61.518L158.281,202.899ZM149.083,41.791C149.083,40.855 149.848,40.09 150.784,40.09L156.581,40.09C157.516,40.09 158.281,40.855 158.281,41.791L158.281,45.683C156.313,44.949 155.113,43.211 155.1,43.191C154.689,42.567 153.997,42.195 153.252,42.195C153.234,42.195 153.135,42.198 153.118,42.199C152.33,42.248 151.622,42.715 151.278,43.405C151.239,43.48 150.6,44.656 149.083,45.469L149.083,41.791ZM202.649,1.5L136.8,1.5L136.8,233.609C179.02,219.776 205.2,179.672 205.2,130.355L205.2,4.052C205.2,2.643 204.058,1.5 202.649,1.5Z" style="fill:white;fill-rule:nonzero;"/>
        <path d="M103.2,238.8C41.699,238.8 1.199,191.4 1.199,130.355L1.199,4.052C1.199,2.643 2.342,1.5 3.751,1.5L202.649,1.5C204.058,1.5 205.2,2.643 205.2,4.052L205.2,130.355C205.2,191.7 164.7,238.8 103.2,238.8Z" style="fill:none;stroke:white;stroke-width:2.4px;"/>
        <path d="M313.478,189.806L284.408,155.426L311.858,126.086L292.598,126.086L269.828,152.006L269.558,152.006L269.558,126.086L254.528,126.086L254.528,189.806L269.558,189.806L269.558,160.466L269.738,160.466L293.408,189.806L313.478,189.806ZM374.318,143.862C372.578,139.752 370.163,136.256 367.073,133.376C363.983,130.498 360.308,128.278 356.048,126.716C351.788,125.157 347.168,124.376 342.188,124.376C337.208,124.376 332.603,125.157 328.373,126.716C324.143,128.278 320.483,130.498 317.393,133.376C314.303,136.256 311.888,139.752 310.148,143.862C308.408,147.971 307.538,152.578 307.538,157.676C307.538,162.716 308.408,167.322 310.148,171.492C311.888,175.663 314.303,179.231 317.393,182.202C320.483,185.171 324.143,187.466 328.373,189.086C332.603,190.706 337.208,191.516 342.188,191.516C347.168,191.516 351.788,190.706 356.048,189.086C360.308,187.466 363.983,185.171 367.073,182.202C370.163,179.231 372.578,175.663 374.318,171.492C376.058,167.322 376.928,162.716 376.928,157.676C376.928,152.578 376.058,147.971 374.318,143.862ZM359.108,165.641C358.208,168.072 356.948,170.157 355.328,171.896C353.708,173.637 351.788,175.001 349.568,175.992C347.348,176.981 344.888,177.476 342.188,177.476C339.488,177.476 337.028,176.981 334.808,175.992C332.588,175.001 330.683,173.637 329.093,171.896C327.503,170.157 326.258,168.072 325.358,165.641C324.458,163.211 324.008,160.556 324.008,157.676C324.008,154.917 324.443,152.336 325.313,149.936C326.183,147.538 327.428,145.481 329.048,143.771C330.668,142.061 332.588,140.711 334.808,139.721C337.028,138.731 339.488,138.237 342.188,138.237C344.888,138.237 347.363,138.731 349.613,139.721C351.863,140.711 353.783,142.061 355.373,143.771C356.963,145.481 358.208,147.538 359.108,149.936C360.008,152.336 360.458,154.917 360.458,157.676C360.458,160.556 360.008,163.211 359.108,165.641ZM457.208,189.806L457.208,126.086L434.95,126.086L421.073,166.947L420.713,166.947L406.205,126.086L384.308,126.086L384.308,189.806L398.798,189.806L398.438,144.716L398.708,144.716L414.818,189.806L425.618,189.806L442.178,144.716L442.448,144.716L442.088,189.806L457.208,189.806ZM539.467,189.806L539.467,126.086L517.209,126.086L503.332,166.947L502.972,166.947L488.464,126.086L466.567,126.086L466.567,189.806L481.057,189.806L480.696,144.716L480.967,144.716L497.077,189.806L507.877,189.806L524.437,144.716L524.707,144.716L524.347,189.806L539.467,189.806ZM603.456,165.777L603.456,126.086L588.065,126.086L588.065,164.516C588.065,166.257 587.855,167.907 587.436,169.466C587.015,171.028 586.324,172.422 585.365,173.652C584.404,174.881 583.161,175.856 581.631,176.577C580.101,177.296 578.256,177.657 576.096,177.657C573.936,177.657 572.091,177.296 570.561,176.577C569.03,175.856 567.8,174.881 566.871,173.652C565.94,172.422 565.251,171.028 564.801,169.466C564.351,167.907 564.126,166.257 564.126,164.516L564.126,126.086L548.826,126.086L548.826,165.777C548.826,169.617 549.456,173.112 550.716,176.261C551.976,179.412 553.775,182.112 556.115,184.362C558.456,186.612 561.305,188.367 564.666,189.626C568.024,190.886 571.805,191.516 576.006,191.516C580.146,191.516 583.91,190.886 587.301,189.626C590.69,188.367 593.585,186.612 595.985,184.362C598.385,182.112 600.23,179.412 601.521,176.261C602.81,173.112 603.456,169.617 603.456,165.777ZM670.774,189.806L670.774,126.086L655.835,126.086L656.194,167.666L655.925,167.666L630.364,126.086L612.815,126.086L612.815,189.806L627.755,189.806L627.395,148.136L627.665,148.136L653.315,189.806L670.774,189.806Z" style="fill:white;fill-rule:nonzero;"/>
        <path d="M327.428,103.807L327.428,40.087L305.17,40.087L291.293,80.947L290.933,80.947L276.425,40.087L254.528,40.087L254.528,103.807L269.018,103.807L268.658,58.717L268.928,58.717L285.038,103.807L295.838,103.807L312.398,58.717L312.668,58.717L312.308,103.807L327.428,103.807ZM381.247,103.807L381.247,90.667L351.637,90.667L351.637,77.437L378.097,77.437L378.097,65.107L351.637,65.107L351.637,53.047L379.627,53.047L379.627,40.087L336.787,40.087L336.787,103.807L381.247,103.807ZM430.656,103.807L430.656,90.397L405.996,90.397L405.996,40.087L390.516,40.087L390.516,103.807L430.656,103.807ZM477.095,103.807L477.095,90.397L452.435,90.397L452.435,40.087L436.955,40.087L436.955,103.807L477.095,103.807ZM527.854,103.807L527.854,90.667L498.244,90.667L498.244,77.437L524.704,77.437L524.704,65.107L498.244,65.107L498.244,53.047L526.233,53.047L526.233,40.087L483.394,40.087L483.394,103.807L527.854,103.807ZM589.232,103.807L572.583,76.537C576.723,75.277 579.963,73.177 582.303,70.237C584.643,67.298 585.813,63.667 585.813,59.347C585.813,55.688 585.123,52.628 583.743,50.167C582.361,47.707 580.517,45.727 578.208,44.227C575.898,42.728 573.288,41.662 570.378,41.032C567.467,40.402 564.482,40.087 561.423,40.087L537.123,40.087L537.123,103.807L552.152,103.807L552.152,78.517L557.398,78.517L571.232,103.807L589.232,103.807ZM569.563,63.577C568.869,64.598 567.981,65.377 566.895,65.917C565.809,66.457 564.604,66.832 563.277,67.042C561.951,67.253 560.653,67.357 559.388,67.357L552.063,67.357L552.063,52.507L560.293,52.507C561.437,52.507 562.628,52.597 563.863,52.777C565.101,52.957 566.216,53.303 567.211,53.812C568.206,54.322 569.02,55.042 569.652,55.972C570.285,56.903 570.603,58.118 570.603,59.617C570.603,61.237 570.256,62.557 569.563,63.577ZM647.373,79.777L647.373,40.087L631.982,40.087L631.982,78.517C631.982,80.258 631.772,81.907 631.353,83.467C630.932,85.028 630.242,86.423 629.283,87.652C628.321,88.882 627.078,89.857 625.548,90.577C624.018,91.297 622.173,91.657 620.013,91.657C617.853,91.657 616.008,91.297 614.478,90.577C612.947,89.857 611.717,88.882 610.788,87.652C609.857,86.423 609.168,85.028 608.718,83.467C608.268,81.907 608.043,80.258 608.043,78.517L608.043,40.087L592.743,40.087L592.743,79.777C592.743,83.617 593.373,87.112 594.633,90.262C595.893,93.412 597.692,96.112 600.033,98.362C602.373,100.611 605.222,102.366 608.583,103.626C611.941,104.886 615.722,105.517 619.923,105.517C624.063,105.517 627.827,104.886 631.218,103.626C634.607,102.366 637.502,100.611 639.902,98.362C642.302,96.112 644.147,93.412 645.438,90.262C646.727,87.112 647.373,83.617 647.373,79.777ZM712.802,56.647C710.701,52.567 707.941,49.312 704.522,46.882C701.102,44.452 697.201,42.712 692.821,41.662C688.44,40.613 684.002,40.087 679.502,40.087L656.462,40.087L656.462,103.807L680.222,103.807C684.601,103.807 688.921,103.191 693.182,101.961C697.44,100.732 701.267,98.812 704.656,96.202C708.046,93.592 710.776,90.262 712.847,86.212C714.917,82.162 715.952,77.347 715.952,71.767C715.952,65.768 714.9,60.728 712.802,56.647ZM698.177,80.677C697.007,83.077 695.445,84.997 693.497,86.437C691.546,87.877 689.296,88.912 686.747,89.542C684.195,90.172 681.541,90.487 678.781,90.487L671.492,90.487L671.492,53.227L679.142,53.227C681.78,53.227 684.346,53.528 686.837,54.127C689.326,54.727 691.546,55.733 693.497,57.142C695.445,58.552 697.007,60.442 698.177,62.812C699.347,65.183 699.932,68.167 699.932,71.767C699.932,75.308 699.347,78.278 698.177,80.677ZM767.251,46.297C764.43,43.718 761.145,41.767 757.396,40.447C753.645,39.128 749.971,38.467 746.371,38.467C743.37,38.467 740.399,38.842 737.461,39.592C734.52,40.343 731.881,41.527 729.541,43.147C727.201,44.767 725.311,46.837 723.871,49.357C722.431,51.877 721.711,54.907 721.711,58.447C721.711,61.327 722.175,63.772 723.106,65.782C724.035,67.793 725.266,69.503 726.796,70.912C728.326,72.322 730.065,73.477 732.016,74.377C733.965,75.277 735.96,76.057 738.001,76.717C740.1,77.378 741.975,77.992 743.626,78.562C745.274,79.133 746.654,79.763 747.766,80.452C748.875,81.142 749.73,81.907 750.331,82.747C750.93,83.588 751.231,84.607 751.231,85.807C751.231,87.067 750.989,88.147 750.511,89.047C750.029,89.947 749.386,90.667 748.576,91.207C747.766,91.747 746.82,92.138 745.74,92.377C744.661,92.617 743.55,92.737 742.411,92.737C739.891,92.737 737.355,92.093 734.806,90.802C732.255,89.512 730.2,87.908 728.641,85.987L718.561,96.247C721.38,99.187 724.92,101.453 729.181,103.041C733.44,104.63 737.85,105.426 742.411,105.426C745.529,105.426 748.56,105.006 751.501,104.166C754.44,103.327 757.05,102.038 759.331,100.297C761.609,98.557 763.426,96.352 764.775,93.682C766.126,91.013 766.801,87.847 766.801,84.187C766.801,81.007 766.171,78.352 764.911,76.222C763.65,74.093 762.06,72.307 760.141,70.867C758.22,69.427 756.091,68.272 753.751,67.402C751.411,66.533 749.161,65.737 747.001,65.017C745.5,64.537 744.149,64.072 742.951,63.622C741.75,63.172 740.715,62.677 739.846,62.137C738.975,61.597 738.315,60.967 737.865,60.247C737.416,59.527 737.19,58.627 737.19,57.547C737.19,56.287 737.475,55.252 738.046,54.442C738.614,53.632 739.319,52.972 740.161,52.462C741,51.953 741.944,51.607 742.996,51.427C744.045,51.247 745.08,51.157 746.101,51.157C748.081,51.157 750.135,51.652 752.266,52.642C754.395,53.632 756.12,54.968 757.44,56.647L767.251,46.297Z" style="fill:white;fill-rule:nonzero;"/>
    </g>
</svg>
